<svg width="936" height="1239" xmlns="http://www.w3.org/2000/svg" xmlns:xlink="http://www.w3.org/1999/xlink" overflow="hidden"><defs><clipPath id="clip0"><rect x="1732" y="618" width="936" height="1239"/></clipPath><linearGradient x1="2200" y1="1852" x2="2200" y2="1318" gradientUnits="userSpaceOnUse" spreadMethod="reflect" id="fill1"><stop offset="0" stop-color="#38A3A5"/><stop offset="0.04" stop-color="#38A4A6"/><stop offset="0.08" stop-color="#39A6A8"/><stop offset="0.12" stop-color="#39A8AA"/><stop offset="0.16" stop-color="#3AA9AC"/><stop offset="0.2" stop-color="#3BABAD"/><stop offset="0.24" stop-color="#3BADAF"/><stop offset="0.28" stop-color="#3CAEB0"/><stop offset="0.32" stop-color="#3CAFB2"/><stop offset="0.36" stop-color="#3DB1B3"/><stop offset="0.4" stop-color="#3DB2B5"/><stop offset="0.44" stop-color="#3DB3B6"/><stop offset="0.48" stop-color="#3EB4B7"/><stop offset="0.52" stop-color="#3EB5B8"/><stop offset="0.56" stop-color="#3FB6B9"/><stop offset="0.6" stop-color="#3FB7BA"/><stop offset="0.64" stop-color="#3FB8BB"/><stop offset="0.68" stop-color="#3FB9BB"/><stop offset="0.72" stop-color="#40B9BC"/><stop offset="0.76" stop-color="#40BABD"/><stop offset="0.8" stop-color="#40BABD"/><stop offset="0.84" stop-color="#40BBBE"/><stop offset="0.88" stop-color="#40BBBE"/><stop offset="0.92" stop-color="#40BBBE"/><stop offset="0.96" stop-color="#40BBBE"/><stop offset="1" stop-color="#41BCBF"/></linearGradient><clipPath id="clip2"><rect x="1894" y="669" width="612" height="613"/></clipPath><clipPath id="clip3"><rect x="1894" y="669" width="612" height="613"/></clipPath><clipPath id="clip4"><rect x="1894" y="669" width="612" height="613"/></clipPath></defs><g clip-path="url(#clip0)" transform="translate(-1732 -618)"><path d="M1737 684.736C1737 650.64 1764.64 623 1798.74 623L2601.26 623C2635.36 623 2663 650.64 2663 684.736L2663 1790.26C2663 1824.36 2635.36 1852 2601.26 1852L1798.74 1852C1764.64 1852 1737 1824.36 1737 1790.26Z" stroke="#49C791" stroke-width="10.3125" stroke-miterlimit="8" fill="#F2F2F2" fill-rule="evenodd" fill-opacity="0.560784"/><path d="M1768 698.174C1768 673.778 1787.78 654 1812.17 654L2587.83 654C2612.22 654 2632 673.778 2632 698.174L2632 1299.83C2632 1324.22 2612.22 1344 2587.83 1344L1812.17 1344C1787.78 1344 1768 1324.22 1768 1299.83Z" fill="#FFFFFF" fill-rule="evenodd"/><path d="M1737 1318 1778.74 1318 2621.26 1318 2663 1318 2663 1485.18 2663 1485.18 2663 1810.55C2663 1833.44 2644.31 1852 2621.26 1852L1778.74 1852C1755.69 1852 1737 1833.44 1737 1810.55L1737 1359.45 1737 1359.45Z" fill="url(#fill1)" fill-rule="evenodd"/><path d="M1916 1609.67C1916 1596.04 1927.04 1585 1940.67 1585L2459.33 1585C2472.96 1585 2484 1596.04 2484 1609.67L2484 1708.33C2484 1721.96 2472.96 1733 2459.33 1733L1940.67 1733C1927.04 1733 1916 1721.96 1916 1708.33Z" stroke="#49C791" stroke-width="10.3125" stroke-miterlimit="8" fill="#57CC99" fill-rule="evenodd"/><text fill="#FFFFFF" font-family="Segoe UI,Segoe UI_MSFontService,sans-serif" font-weight="700" font-size="83" transform="matrix(1 0 0 1 2003.2 1690)">Play Now!<tspan font-family="Arial,Arial_MSFontService,sans-serif" font-weight="400" font-size="83" x="10.483" y="-196">Connect 4</tspan></text><g clip-path="url(#clip2)"><g clip-path="url(#clip3)"><g clip-path="url(#clip4)"><path d="M2056.56 1253.31 1922.69 1253.31 1960.94 1215.06 2018.31 1215.06Z" fill="#F9BB4B"/><path d="M2477.31 1253.31 2343.44 1253.31 2381.69 1215.06 2439.06 1215.06Z" fill="#F9BB4B"/><path d="M1922.69 794.312 2477.31 794.312 2477.31 1157.69 1922.69 1157.69Z" fill="#32B1CC"/><path d="M2037.44 861.25C2037.44 877.094 2024.59 889.937 2008.75 889.937 1992.91 889.937 1980.06 877.094 1980.06 861.25 1980.06 845.406 1992.91 832.562 2008.75 832.562 2024.59 832.562 2037.44 845.406 2037.44 861.25Z" fill="#F4F4E6"/><path d="M2037.44 956.875C2037.44 972.719 2024.59 985.562 2008.75 985.562 1992.91 985.562 1980.06 972.719 1980.06 956.875 1980.06 941.031 1992.91 928.187 2008.75 928.187 2024.59 928.187 2037.44 941.031 2037.44 956.875Z" fill="#FCF05A"/><path d="M2037.44 1052.5C2037.44 1068.34 2024.59 1081.19 2008.75 1081.19 1992.91 1081.19 1980.06 1068.34 1980.06 1052.5 1980.06 1036.66 1992.91 1023.81 2008.75 1023.81 2024.59 1023.81 2037.44 1036.66 2037.44 1052.5Z" fill="#F98C96"/><path d="M2133.06 861.25C2133.06 877.094 2120.22 889.937 2104.38 889.937 2088.53 889.937 2075.69 877.094 2075.69 861.25 2075.69 845.406 2088.53 832.562 2104.38 832.562 2120.22 832.562 2133.06 845.406 2133.06 861.25Z" fill="#F4F4E6"/><path d="M2133.06 956.875C2133.06 972.719 2120.22 985.562 2104.38 985.562 2088.53 985.562 2075.69 972.719 2075.69 956.875 2075.69 941.031 2088.53 928.187 2104.38 928.187 2120.22 928.187 2133.06 941.031 2133.06 956.875Z" fill="#F4F4E6"/><path d="M2133.06 1052.5C2133.06 1068.34 2120.22 1081.19 2104.38 1081.19 2088.53 1081.19 2075.69 1068.34 2075.69 1052.5 2075.69 1036.66 2088.53 1023.81 2104.38 1023.81 2120.22 1023.81 2133.06 1036.66 2133.06 1052.5Z" fill="#FCF05A"/><path d="M2228.69 861.25C2228.69 877.094 2215.84 889.937 2200 889.937 2184.16 889.937 2171.31 877.094 2171.31 861.25 2171.31 845.406 2184.16 832.562 2200 832.562 2215.84 832.562 2228.69 845.406 2228.69 861.25Z" fill="#F4F4E6"/><path d="M2228.69 956.875C2228.69 972.719 2215.84 985.562 2200 985.562 2184.16 985.562 2171.31 972.719 2171.31 956.875 2171.31 941.031 2184.16 928.187 2200 928.187 2215.84 928.187 2228.69 941.031 2228.69 956.875Z" fill="#F4F4E6"/><path d="M2228.69 1052.5C2228.69 1068.34 2215.84 1081.19 2200 1081.19 2184.16 1081.19 2171.31 1068.34 2171.31 1052.5 2171.31 1036.66 2184.16 1023.81 2200 1023.81 2215.84 1023.81 2228.69 1036.66 2228.69 1052.5Z" fill="#F98C96"/><path d="M2324.31 861.25C2324.31 877.094 2311.47 889.937 2295.62 889.937 2279.78 889.937 2266.94 877.094 2266.94 861.25 2266.94 845.406 2279.78 832.562 2295.62 832.562 2311.47 832.562 2324.31 845.406 2324.31 861.25Z" fill="#F98C96"/><path d="M2324.31 956.875C2324.31 972.719 2311.47 985.562 2295.62 985.562 2279.78 985.562 2266.94 972.719 2266.94 956.875 2266.94 941.031 2279.78 928.187 2295.62 928.187 2311.47 928.187 2324.31 941.031 2324.31 956.875Z" fill="#FCF05A"/><path d="M2324.31 1052.5C2324.31 1068.34 2311.47 1081.19 2295.62 1081.19 2279.78 1081.19 2266.94 1068.34 2266.94 1052.5 2266.94 1036.66 2279.78 1023.81 2295.62 1023.81 2311.47 1023.81 2324.31 1036.66 2324.31 1052.5Z" fill="#FCF05A"/><path d="M2419.94 861.25C2419.94 877.094 2407.09 889.937 2391.25 889.937 2375.41 889.937 2362.56 877.094 2362.56 861.25 2362.56 845.406 2375.41 832.562 2391.25 832.562 2407.09 832.562 2419.94 845.406 2419.94 861.25Z" fill="#F4F4E6"/><path d="M2419.94 956.875C2419.94 972.719 2407.09 985.562 2391.25 985.562 2375.41 985.562 2362.56 972.719 2362.56 956.875 2362.56 941.031 2375.41 928.187 2391.25 928.187 2407.09 928.187 2419.94 941.031 2419.94 956.875Z" fill="#F98C96"/><path d="M2419.94 1052.5C2419.94 1068.34 2407.09 1081.19 2391.25 1081.19 2375.41 1081.19 2362.56 1068.34 2362.56 1052.5 2362.56 1036.66 2375.41 1023.81 2391.25 1023.81 2407.09 1023.81 2419.94 1036.66 2419.94 1052.5Z" fill="#F98C96"/><path d="M2429.5 995.125 2448.62 995.125 2448.62 1014.25 2429.5 1014.25Z" fill="#87CEE9"/><path d="M1951.38 899.5 1970.5 899.5 1970.5 918.625 1951.38 918.625Z" fill="#87CEE9"/><path d="M2238.25 1109.87 2257.38 1109.87 2257.38 1129 2238.25 1129Z" fill="#87CEE9"/><path d="M2314.75 1109.87 2353 1109.87 2353 1129 2314.75 1129Z" fill="#87CEE9"/><path d="M2104.38 756.062C2088.53 756.062 2075.69 768.906 2075.69 784.75 2075.72 788.015 2076.31 791.25 2077.45 794.312L2131.3 794.312C2132.44 791.25 2133.03 788.015 2133.06 784.75 2133.06 768.906 2120.22 756.062 2104.38 756.062Z" fill="#F98C96"/><path d="M2391.25 756.062C2375.41 756.062 2362.56 768.906 2362.56 784.75 2362.59 788.015 2363.19 791.25 2364.32 794.312L2418.18 794.312C2419.31 791.25 2419.91 788.015 2419.94 784.75 2419.94 768.906 2407.09 756.062 2391.25 756.062Z" fill="#FCF05A"/><path d="M2353 727.375C2353 743.219 2340.16 756.062 2324.31 756.062 2308.47 756.062 2295.62 743.219 2295.62 727.375 2295.62 711.531 2308.47 698.687 2324.31 698.687 2340.16 698.687 2353 711.531 2353 727.375Z" fill="#FCF05A"/><path d="M1960.94 1119.44 2018.31 1119.44 2018.31 1215.06 1960.94 1215.06Z" fill="#195C85"/><path d="M2381.69 1119.44 2439.06 1119.44 2439.06 1215.06 2381.69 1215.06Z" fill="#195C85"/><path d="M2477.31 784.75 2429.5 784.75C2429.5 763.625 2412.38 746.5 2391.25 746.5 2370.12 746.5 2353 763.625 2353 784.75L2142.62 784.75C2142.62 763.625 2125.5 746.5 2104.38 746.5 2083.25 746.5 2066.12 763.625 2066.12 784.75L1922.69 784.75C1917.41 784.75 1913.13 789.031 1913.13 794.312L1913.13 1157.69C1913.13 1162.97 1917.41 1167.25 1922.69 1167.25L1951.38 1167.25 1951.38 1211.1 1915.93 1246.55C1912.19 1250.29 1912.19 1256.34 1915.93 1260.08 1917.72 1261.87 1920.15 1262.87 1922.69 1262.87L2056.56 1262.87C2061.84 1262.87 2066.12 1258.59 2066.12 1253.31 2066.12 1250.78 2065.12 1248.34 2063.32 1246.55L2027.88 1211.1 2027.88 1167.25 2372.12 1167.25 2372.12 1211.1 2336.68 1246.55C2332.94 1250.29 2332.94 1256.34 2336.68 1260.08 2338.47 1261.87 2340.9 1262.87 2343.44 1262.87L2477.31 1262.87C2482.59 1262.87 2486.87 1258.59 2486.87 1253.31 2486.87 1250.78 2485.87 1248.34 2484.07 1246.55L2448.62 1211.1 2448.62 1167.25 2477.31 1167.25C2482.59 1167.25 2486.88 1162.97 2486.88 1157.69L2486.88 794.312C2486.88 789.031 2482.59 784.75 2477.31 784.75ZM2391.25 765.625C2401.81 765.625 2410.38 774.188 2410.38 784.75L2372.12 784.75C2372.12 774.188 2380.69 765.625 2391.25 765.625ZM2104.38 765.625C2114.94 765.625 2123.5 774.188 2123.5 784.75L2085.25 784.75C2085.25 774.188 2093.81 765.625 2104.38 765.625ZM2033.48 1243.75 1945.77 1243.75 1964.9 1224.62 2014.35 1224.62ZM1970.5 1205.5 1970.5 1129 2008.75 1129 2008.75 1205.5ZM2454.23 1243.75 2366.52 1243.75 2385.65 1224.62 2435.1 1224.62ZM2391.25 1205.5 2391.25 1129 2429.5 1129 2429.5 1205.5ZM2467.75 1148.12 2448.62 1148.12 2448.62 1119.44C2448.62 1114.16 2444.34 1109.87 2439.06 1109.87L2381.69 1109.87C2376.41 1109.87 2372.12 1114.16 2372.12 1119.44L2372.12 1148.12 2027.88 1148.12 2027.88 1119.44C2027.88 1114.16 2023.59 1109.87 2018.31 1109.87L1960.94 1109.87C1955.66 1109.87 1951.38 1114.16 1951.38 1119.44L1951.38 1148.12 1932.25 1148.12 1932.25 803.875 2467.75 803.875Z"/><path d="M2008.75 823C1987.63 823 1970.5 840.125 1970.5 861.25 1970.5 882.375 1987.63 899.5 2008.75 899.5 2029.88 899.5 2047 882.375 2047 861.25 2047 840.125 2029.88 823 2008.75 823ZM2008.75 880.375C1998.19 880.375 1989.63 871.812 1989.63 861.25 1989.63 850.687 1998.19 842.125 2008.75 842.125 2019.31 842.125 2027.88 850.687 2027.88 861.25 2027.88 871.812 2019.31 880.375 2008.75 880.375Z"/><path d="M2008.75 918.625C1987.63 918.625 1970.5 935.75 1970.5 956.875 1970.5 978 1987.63 995.125 2008.75 995.125 2029.88 995.125 2047 978 2047 956.875 2047 935.75 2029.88 918.625 2008.75 918.625ZM2008.75 976C1998.19 976 1989.63 967.437 1989.63 956.875 1989.63 946.312 1998.19 937.75 2008.75 937.75 2019.31 937.75 2027.88 946.312 2027.88 956.875 2027.88 967.437 2019.31 976 2008.75 976Z"/><path d="M2008.75 1014.25C1987.63 1014.25 1970.5 1031.38 1970.5 1052.5 1970.5 1073.62 1987.63 1090.75 2008.75 1090.75 2029.88 1090.75 2047 1073.62 2047 1052.5 2047 1031.38 2029.88 1014.25 2008.75 1014.25ZM2008.75 1071.62C1998.19 1071.62 1989.63 1063.06 1989.63 1052.5 1989.63 1041.94 1998.19 1033.37 2008.75 1033.37 2019.31 1033.37 2027.88 1041.94 2027.88 1052.5 2027.88 1063.06 2019.31 1071.62 2008.75 1071.62Z"/><path d="M2104.38 823C2083.25 823 2066.12 840.125 2066.12 861.25 2066.12 882.375 2083.25 899.5 2104.38 899.5 2125.5 899.5 2142.62 882.375 2142.62 861.25 2142.62 840.125 2125.5 823 2104.38 823ZM2104.38 880.375C2093.81 880.375 2085.25 871.812 2085.25 861.25 2085.25 850.687 2093.81 842.125 2104.38 842.125 2114.94 842.125 2123.5 850.687 2123.5 861.25 2123.5 871.812 2114.94 880.375 2104.38 880.375Z"/><path d="M2104.38 918.625C2083.25 918.625 2066.12 935.75 2066.12 956.875 2066.12 978 2083.25 995.125 2104.38 995.125 2125.5 995.125 2142.62 978 2142.62 956.875 2142.62 935.75 2125.5 918.625 2104.38 918.625ZM2104.38 976C2093.81 976 2085.25 967.437 2085.25 956.875 2085.25 946.312 2093.81 937.75 2104.38 937.75 2114.94 937.75 2123.5 946.312 2123.5 956.875 2123.5 967.437 2114.94 976 2104.38 976Z"/><path d="M2104.38 1014.25C2083.25 1014.25 2066.12 1031.38 2066.12 1052.5 2066.12 1073.62 2083.25 1090.75 2104.38 1090.75 2125.5 1090.75 2142.62 1073.62 2142.62 1052.5 2142.62 1031.38 2125.5 1014.25 2104.38 1014.25ZM2104.38 1071.62C2093.81 1071.62 2085.25 1063.06 2085.25 1052.5 2085.25 1041.94 2093.81 1033.37 2104.38 1033.37 2114.94 1033.37 2123.5 1041.94 2123.5 1052.5 2123.5 1063.06 2114.94 1071.62 2104.38 1071.62Z"/><path d="M2200 899.5C2221.12 899.5 2238.25 882.375 2238.25 861.25 2238.25 840.125 2221.12 823 2200 823 2178.88 823 2161.75 840.125 2161.75 861.25 2161.75 882.375 2178.88 899.5 2200 899.5ZM2200 842.125C2210.56 842.125 2219.12 850.687 2219.12 861.25 2219.12 871.812 2210.56 880.375 2200 880.375 2189.44 880.375 2180.88 871.812 2180.88 861.25 2180.88 850.687 2189.44 842.125 2200 842.125Z"/><path d="M2200 995.125C2221.12 995.125 2238.25 978 2238.25 956.875 2238.25 935.75 2221.12 918.625 2200 918.625 2178.88 918.625 2161.75 935.75 2161.75 956.875 2161.75 978 2178.88 995.125 2200 995.125ZM2200 937.75C2210.56 937.75 2219.12 946.312 2219.12 956.875 2219.12 967.437 2210.56 976 2200 976 2189.44 976 2180.88 967.437 2180.88 956.875 2180.88 946.312 2189.44 937.75 2200 937.75Z"/><path d="M2200 1014.25C2178.88 1014.25 2161.75 1031.38 2161.75 1052.5 2161.75 1073.62 2178.88 1090.75 2200 1090.75 2221.12 1090.75 2238.25 1073.62 2238.25 1052.5 2238.25 1031.38 2221.12 1014.25 2200 1014.25ZM2200 1071.62C2189.44 1071.62 2180.88 1063.06 2180.88 1052.5 2180.88 1041.94 2189.44 1033.37 2200 1033.37 2210.56 1033.37 2219.12 1041.94 2219.12 1052.5 2219.12 1063.06 2210.56 1071.62 2200 1071.62Z"/><path d="M2295.62 899.5C2316.75 899.5 2333.88 882.375 2333.88 861.25 2333.88 840.125 2316.75 823 2295.62 823 2274.5 823 2257.38 840.125 2257.38 861.25 2257.38 882.375 2274.5 899.5 2295.62 899.5ZM2295.62 842.125C2306.19 842.125 2314.75 850.687 2314.75 861.25 2314.75 871.812 2306.19 880.375 2295.62 880.375 2285.06 880.375 2276.5 871.812 2276.5 861.25 2276.5 850.687 2285.06 842.125 2295.62 842.125Z"/><path d="M2295.62 995.125C2316.75 995.125 2333.88 978 2333.88 956.875 2333.88 935.75 2316.75 918.625 2295.62 918.625 2274.5 918.625 2257.38 935.75 2257.38 956.875 2257.38 978 2274.5 995.125 2295.62 995.125ZM2295.62 937.75C2306.19 937.75 2314.75 946.312 2314.75 956.875 2314.75 967.437 2306.19 976 2295.62 976 2285.06 976 2276.5 967.437 2276.5 956.875 2276.5 946.312 2285.06 937.75 2295.62 937.75Z"/><path d="M2333.88 1052.5C2333.88 1031.38 2316.75 1014.25 2295.62 1014.25 2274.5 1014.25 2257.38 1031.38 2257.38 1052.5 2257.38 1073.62 2274.5 1090.75 2295.62 1090.75 2316.75 1090.75 2333.88 1073.62 2333.88 1052.5ZM2295.62 1071.62C2285.06 1071.62 2276.5 1063.06 2276.5 1052.5 2276.5 1041.94 2285.06 1033.37 2295.62 1033.37 2306.19 1033.37 2314.75 1041.94 2314.75 1052.5 2314.75 1063.06 2306.19 1071.62 2295.62 1071.62Z"/><path d="M2353 861.25C2353 882.375 2370.12 899.5 2391.25 899.5 2412.38 899.5 2429.5 882.375 2429.5 861.25 2429.5 840.125 2412.38 823 2391.25 823 2370.12 823 2353 840.125 2353 861.25ZM2410.38 861.25C2410.38 871.812 2401.81 880.375 2391.25 880.375 2380.69 880.375 2372.12 871.812 2372.12 861.25 2372.12 850.687 2380.69 842.125 2391.25 842.125 2401.81 842.125 2410.38 850.687 2410.38 861.25Z"/><path d="M2391.25 995.125C2412.38 995.125 2429.5 978 2429.5 956.875 2429.5 935.75 2412.38 918.625 2391.25 918.625 2370.12 918.625 2353 935.75 2353 956.875 2353 978 2370.12 995.125 2391.25 995.125ZM2391.25 937.75C2401.81 937.75 2410.38 946.312 2410.38 956.875 2410.38 967.437 2401.81 976 2391.25 976 2380.69 976 2372.12 967.437 2372.12 956.875 2372.12 946.312 2380.69 937.75 2391.25 937.75Z"/><path d="M2391.25 1014.25C2370.12 1014.25 2353 1031.38 2353 1052.5 2353 1073.62 2370.12 1090.75 2391.25 1090.75 2412.38 1090.75 2429.5 1073.62 2429.5 1052.5 2429.5 1031.38 2412.38 1014.25 2391.25 1014.25ZM2391.25 1071.62C2380.69 1071.62 2372.12 1063.06 2372.12 1052.5 2372.12 1041.94 2380.69 1033.37 2391.25 1033.37 2401.81 1033.37 2410.38 1041.94 2410.38 1052.5 2410.38 1063.06 2401.81 1071.62 2391.25 1071.62Z"/><path d="M2429.5 995.125 2448.62 995.125 2448.62 1014.25 2429.5 1014.25Z"/><path d="M1951.38 899.5 1970.5 899.5 1970.5 918.625 1951.38 918.625Z"/><path d="M2238.25 1109.87 2257.38 1109.87 2257.38 1129 2238.25 1129Z"/><path d="M2314.75 1109.87 2353 1109.87 2353 1129 2314.75 1129Z"/><path d="M2362.56 727.375C2362.56 706.25 2345.44 689.125 2324.31 689.125 2303.19 689.125 2286.06 706.25 2286.06 727.375 2286.06 748.5 2303.19 765.625 2324.31 765.625 2345.44 765.625 2362.56 748.5 2362.56 727.375ZM2305.19 727.375C2305.19 716.812 2313.75 708.25 2324.31 708.25 2334.88 708.25 2343.44 716.812 2343.44 727.375 2343.44 737.937 2334.88 746.5 2324.31 746.5 2313.75 746.5 2305.19 737.937 2305.19 727.375Z"/></g></g></g></g></svg>