<svg width="936" height="1240" xmlns="http://www.w3.org/2000/svg" xmlns:xlink="http://www.w3.org/1999/xlink" overflow="hidden"><defs><clipPath id="clip0"><rect x="1732" y="1034" width="936" height="1240"/></clipPath><linearGradient x1="2200" y1="2269" x2="2200" y2="1735" gradientUnits="userSpaceOnUse" spreadMethod="reflect" id="fill1"><stop offset="0" stop-color="#E8C018"/><stop offset="0.0163934" stop-color="#E8C019"/><stop offset="0.0327869" stop-color="#E9C11B"/><stop offset="0.0491803" stop-color="#E9C21D"/><stop offset="0.0655738" stop-color="#EAC31F"/><stop offset="0.0819672" stop-color="#EAC421"/><stop offset="0.0983607" stop-color="#EBC522"/><stop offset="0.114754" stop-color="#EBC524"/><stop offset="0.131148" stop-color="#ECC626"/><stop offset="0.147541" stop-color="#ECC728"/><stop offset="0.163934" stop-color="#EDC829"/><stop offset="0.180328" stop-color="#EDC92B"/><stop offset="0.196721" stop-color="#EEC92C"/><stop offset="0.213115" stop-color="#EECA2E"/><stop offset="0.229508" stop-color="#EFCB2F"/><stop offset="0.245902" stop-color="#EFCB31"/><stop offset="0.262295" stop-color="#F0CC32"/><stop offset="0.278689" stop-color="#F0CD34"/><stop offset="0.295082" stop-color="#F1CD35"/><stop offset="0.311475" stop-color="#F1CE37"/><stop offset="0.327869" stop-color="#F1CF38"/><stop offset="0.344262" stop-color="#F2CF39"/><stop offset="0.360656" stop-color="#F2D03B"/><stop offset="0.377049" stop-color="#F3D13C"/><stop offset="0.393443" stop-color="#F3D13D"/><stop offset="0.409836" stop-color="#F3D23E"/><stop offset="0.42623" stop-color="#F4D240"/><stop offset="0.442623" stop-color="#F4D341"/><stop offset="0.459016" stop-color="#F4D342"/><stop offset="0.47541" stop-color="#F5D443"/><stop offset="0.491803" stop-color="#F5D444"/><stop offset="0.508197" stop-color="#F5D545"/><stop offset="0.52459" stop-color="#F6D546"/><stop offset="0.540984" stop-color="#F6D647"/><stop offset="0.557377" stop-color="#F6D648"/><stop offset="0.57377" stop-color="#F7D749"/><stop offset="0.590164" stop-color="#F7D74A"/><stop offset="0.606557" stop-color="#F7D74B"/><stop offset="0.622951" stop-color="#F7D84C"/><stop offset="0.639344" stop-color="#F8D84C"/><stop offset="0.655738" stop-color="#F8D94D"/><stop offset="0.672131" stop-color="#F8D94E"/><stop offset="0.688525" stop-color="#F8D94F"/><stop offset="0.704918" stop-color="#F9DA4F"/><stop offset="0.721311" stop-color="#F9DA50"/><stop offset="0.737705" stop-color="#F9DA50"/><stop offset="0.754098" stop-color="#F9DA51"/><stop offset="0.770492" stop-color="#F9DB52"/><stop offset="0.786885" stop-color="#F9DB52"/><stop offset="0.803279" stop-color="#FADB53"/><stop offset="0.819672" stop-color="#FADB53"/><stop offset="0.836066" stop-color="#FADC53"/><stop offset="0.852459" stop-color="#FADC54"/><stop offset="0.868852" stop-color="#FADC54"/><stop offset="0.885246" stop-color="#FADC54"/><stop offset="0.901639" stop-color="#FADC55"/><stop offset="0.918033" stop-color="#FADC55"/><stop offset="0.934426" stop-color="#FADC55"/><stop offset="0.95082" stop-color="#FADC55"/><stop offset="0.967213" stop-color="#FADC55"/><stop offset="0.983607" stop-color="#FADC55"/><stop offset="1" stop-color="#FBDD56"/></linearGradient><clipPath id="clip2"><rect x="1894" y="1086" width="612" height="613"/></clipPath><clipPath id="clip3"><rect x="1894" y="1086" width="612" height="613"/></clipPath><clipPath id="clip4"><rect x="1894" y="1086" width="612" height="613"/></clipPath></defs><g clip-path="url(#clip0)" transform="translate(-1732 -1034)"><path d="M1737 1100.74C1737 1066.64 1764.64 1039 1798.74 1039L2601.26 1039C2635.36 1039 2663 1066.64 2663 1100.74L2663 2207.26C2663 2241.36 2635.36 2269 2601.26 2269L1798.74 2269C1764.64 2269 1737 2241.36 1737 2207.26Z" stroke="#FBDD56" stroke-width="10.3125" stroke-miterlimit="8" fill="#F2F2F2" fill-rule="evenodd" fill-opacity="0.560784"/><path d="M1768 1114.17C1768 1089.78 1787.78 1070 1812.17 1070L2587.83 1070C2612.22 1070 2632 1089.78 2632 1114.17L2632 1715.83C2632 1740.22 2612.22 1760 2587.83 1760L1812.17 1760C1787.78 1760 1768 1740.22 1768 1715.83Z" fill="#FFFFFF" fill-rule="evenodd"/><path d="M1737 1735 1778.74 1735 2621.26 1735 2663 1735 2663 1902.18 2663 1902.18 2663 2227.55C2663 2250.44 2644.31 2269 2621.26 2269L1778.74 2269C1755.69 2269 1737 2250.44 1737 2227.55L1737 1776.45 1737 1776.45Z" fill="url(#fill1)" fill-rule="evenodd"/><path d="M1916 2026.67C1916 2013.04 1927.04 2002 1940.67 2002L2459.33 2002C2472.96 2002 2484 2013.04 2484 2026.67L2484 2125.33C2484 2138.96 2472.96 2150 2459.33 2150L1940.67 2150C1927.04 2150 1916 2138.96 1916 2125.33Z" stroke="#49C791" stroke-width="10.3125" stroke-miterlimit="8" fill="#57CC99" fill-rule="evenodd"/><text fill="#FFFFFF" font-family="Segoe UI,Segoe UI_MSFontService,sans-serif" font-weight="700" font-size="83" transform="matrix(1 0 0 1 2003.2 2106)">Play Now!<tspan font-family="Arial,Arial_MSFontService,sans-serif" font-weight="400" font-size="83" x="-99.1442" y="-195">Jumping Quack </tspan></text><g clip-path="url(#clip2)"><g clip-path="url(#clip3)"><g clip-path="url(#clip4)"><path d="M360.043 515.746 327.467 515.746 327.467 475.291 277.74 475.291 277.74 541.25C277.74 554.628 288.585 565.474 301.964 565.474L360.041 565.474C373.773 565.474 384.905 554.342 384.905 540.61 384.906 526.878 373.775 515.746 360.043 515.746Z" fill="#FFB655" transform="matrix(1.00164 0 0 1 1894 1087)"/><path d="M360.043 515.746 327.467 515.746 327.467 475.291 277.74 475.291 277.74 541.25C277.74 554.628 288.585 565.474 301.964 565.474L360.041 565.474C373.773 565.474 384.905 554.342 384.905 540.61 384.906 526.878 373.775 515.746 360.043 515.746Z" fill="#000000" fill-opacity="0.1" transform="matrix(1.00164 0 0 1 1894 1087)"/><path d="M366.069 45.5303C285.592 45.8083 220.972 112.245 220.972 192.722L220.972 192.722C220.972 218.3 200.237 239.035 174.659 239.035L118.427 239.035C89.5819 239.035 61.4938 229.812 38.2627 212.715L38.2627 212.715C26.1107 203.771 8.9502 212.448 8.9502 227.537L8.9502 290.563C8.9502 392.586 91.656 475.291 193.678 475.291L327.467 475.291C429.49 475.291 512.195 392.586 512.195 290.563L512.195 191.142C512.196 110.55 446.725 45.251 366.069 45.5303Z" fill="#FBDD56" transform="matrix(1.00164 0 0 1 1894 1087)"/><path d="M184.096 238.069C181.049 238.701 177.893 239.035 174.659 239.035L118.425 239.035C89.5819 239.035 61.4926 229.812 38.2627 212.715L38.2627 212.715C26.1107 203.771 8.9502 212.448 8.9502 227.537L8.9502 290.563C8.9502 392.586 91.656 475.29 193.678 475.29L320.195 475.29C175.677 445.003 147.232 294.569 184.096 238.069Z" fill="#000000" fill-opacity="0.05" transform="matrix(1.00164 0 0 1 1894 1087)"/><path d="M602.05 218.091C602.05 243.47 555.328 264.044 497.692 264.044 440.056 264.044 393.334 252.124 393.334 218.091 393.334 184.059 440.056 172.139 497.692 172.139 555.328 172.139 602.05 192.713 602.05 218.091Z" fill="#FFB655" transform="matrix(1.00164 0 0 1 1894 1087)"/><path d="M413.056 187.457C400.65 194.63 393.334 204.629 393.334 218.092 393.334 252.125 440.056 264.045 497.692 264.045 540.204 264.045 576.776 252.85 593.042 236.791 471.126 268.132 408.544 214.274 413.056 187.457Z" fill="#000000" fill-opacity="0.1" transform="matrix(1.00164 0 0 1 1894 1087)"/><path d="M364.094 184.255C364.094 198.48 349.615 210.012 331.754 210.012 313.893 210.012 299.414 198.48 299.414 184.255 299.414 170.029 313.893 158.497 331.754 158.497 349.615 158.497 364.094 170.029 364.094 184.255Z" fill="#FFA6BB" transform="matrix(1.00164 0 0 1 1894 1087)"/><path d="M262.028 403.624 262.028 403.624C205.345 423.369 143.387 393.426 123.64 336.743L122.905 334.632C120.084 326.534 127.255 318.487 135.624 320.361L135.624 320.361C146.318 322.755 157.467 322.113 167.815 318.509L225.391 298.452C254.434 288.335 286.18 303.677 296.297 332.719L296.297 332.719C306.414 361.761 291.071 393.507 262.028 403.624Z" fill="#FFB655" transform="matrix(1.00164 0 0 1 1894 1087)"/><path d="M275.98 515.746 243.406 515.746 243.406 475.291 193.679 475.291 193.679 541.25C193.679 554.628 204.524 565.474 217.903 565.474L275.98 565.474C289.712 565.474 300.844 554.342 300.844 540.61 300.844 526.878 289.712 515.746 275.98 515.746Z" fill="#FFB655" transform="matrix(1.00164 0 0 1 1894 1087)"/><path d="M172.364 316.923 167.815 318.508C157.466 322.113 146.317 322.754 135.624 320.36 127.256 318.486 120.084 326.533 122.905 334.631L123.64 336.742C141.683 388.536 194.97 417.996 247.272 407.63 170.191 403.69 164.939 332.661 172.364 316.923Z" fill="#000000" fill-opacity="0.1" transform="matrix(1.00164 0 0 1 1894 1087)"/><path d="M354.486 125.314C337.018 125.314 322.806 139.525 322.806 156.994 322.806 161.938 326.813 165.944 331.756 165.944 336.699 165.944 340.707 161.938 340.707 156.994 340.707 149.396 346.888 143.214 354.486 143.214 362.084 143.214 368.266 149.396 368.266 156.994 368.266 161.938 372.273 165.944 377.216 165.944 382.159 165.944 386.166 161.938 386.166 156.994 386.168 139.525 371.956 125.314 354.486 125.314ZM133.669 329.095C139.803 330.468 146.093 330.987 152.365 330.618 157.299 330.334 161.069 326.102 160.785 321.168 160.501 316.233 156.273 312.471 151.335 312.747 146.72 313.01 142.092 312.635 137.581 311.627 130.538 310.049 123.187 312.416 118.39 317.801 113.59 323.187 112.083 330.764 114.455 337.575L115.191 339.687C132.085 388.181 177.708 418.635 226.382 418.631 239.189 418.629 252.215 416.521 264.976 412.075 281.28 406.395 294.396 394.706 301.909 379.163 309.421 363.618 310.431 346.078 304.752 329.774 293.027 296.118 256.106 278.276 222.451 289.997L190.738 301.045C186.07 302.672 183.604 307.775 185.231 312.443 186.857 317.111 191.963 319.581 196.628 317.949L228.34 306.902C252.675 298.426 279.371 311.327 287.849 335.662 291.955 347.451 291.226 360.134 285.794 371.374 280.362 382.614 270.878 391.065 259.089 395.17 207.157 413.264 150.189 385.73 132.098 333.798L131.361 331.686C131.044 330.773 131.4 330.107 131.755 329.71 132.106 329.312 132.728 328.885 133.669 329.095ZM575.091 177.406C559.39 170.492 539.896 165.924 518.785 164.093 505.863 90.8135 441.744 36.5789 366.58 36.5789 366.404 36.5789 366.215 36.5801 366.038 36.5801 281.113 36.8724 212.022 106.917 212.022 192.722 212.022 213.324 195.261 230.086 174.659 230.086L118.427 230.086C91.3016 230.086 65.4164 221.587 43.5684 205.507 35.2125 199.358 24.2705 198.444 15.0113 203.127 5.75199 207.808 0 217.162 0 227.537L0 290.563C0 394.356 82.0721 479.332 184.727 484.026L184.727 541.248C184.727 559.54 199.61 574.422 217.902 574.422L275.979 574.422C280.62 574.422 285.045 573.481 289.075 571.782 293.144 573.508 297.517 574.422 301.964 574.422L360.041 574.422C378.686 574.422 393.855 559.254 393.855 540.609 393.855 521.964 378.686 506.795 360.041 506.795L336.418 506.795 336.418 484.033C376.519 482.235 414.289 468.364 446.147 443.629 450.051 440.598 450.759 434.975 447.727 431.071 444.697 427.167 439.075 426.459 435.169 429.491 404.121 453.597 366.878 466.34 327.469 466.34L193.678 466.34C96.754 466.34 17.9004 387.486 17.9004 290.562L17.9004 227.536C17.9004 223.896 19.8396 220.743 23.0879 219.1 26.3351 217.458 30.0249 217.764 32.957 219.922 57.9018 238.281 87.4554 247.985 118.427 247.985L174.66 247.985C205.133 247.985 229.923 223.194 229.923 192.72 229.923 116.754 291.013 54.7382 366.101 54.4793 366.261 54.4781 366.421 54.4781 366.58 54.4781 431.663 54.4781 487.382 100.469 500.386 163.216 499.488 163.206 498.594 163.187 497.693 163.187 404.043 163.187 384.385 193.045 384.385 218.091 384.385 243.137 404.043 272.994 497.693 272.994 499.551 272.994 501.403 272.973 503.247 272.931L503.247 290.562C503.247 329.119 491 365.715 467.83 396.392 464.851 400.338 465.633 405.95 469.579 408.929 471.193 410.149 473.087 410.738 474.966 410.738 477.676 410.738 480.355 409.512 482.115 407.183 507.65 373.372 521.147 333.046 521.147 290.563L521.147 271.862C541.346 269.902 559.979 265.432 575.092 258.776 598.247 248.579 611 234.13 611 218.091 611 202.053 598.247 187.603 575.091 177.406ZM286.692 484.24 318.518 484.24 318.518 515.745C318.518 520.689 322.526 524.695 327.469 524.695L360.043 524.695C368.817 524.695 375.956 531.834 375.956 540.609 375.956 549.383 368.817 556.522 360.043 556.522L305.804 556.522C308.347 551.776 309.794 546.359 309.794 540.609 309.794 525.707 300.1 513.036 286.692 508.544L286.692 484.24 286.692 484.24ZM252.355 484.24 268.79 484.24 268.79 506.795 252.355 506.795 252.355 484.24ZM202.628 484.24 234.455 484.24 234.455 515.745C234.455 520.689 238.462 524.695 243.405 524.695L275.979 524.695C276.262 524.695 276.538 524.723 276.819 524.738 277.079 524.764 277.343 524.775 277.609 524.779 285.621 525.597 291.892 532.385 291.892 540.609 291.892 549.383 284.754 556.522 275.979 556.522L217.902 556.522C209.479 556.522 202.628 549.671 202.628 541.248L202.628 484.24ZM567.877 242.393C549.277 250.583 524.353 255.094 497.692 255.094 467.944 255.094 443.535 251.767 427.101 245.472 402.284 235.965 402.284 222.513 402.284 218.092 402.284 213.671 402.284 200.217 427.101 190.712 443.534 184.417 467.944 181.089 497.691 181.089 524.352 181.089 549.276 185.598 567.876 193.79 583.669 200.745 593.099 209.828 593.099 218.092 593.1 226.354 583.671 235.44 567.877 242.393Z" transform="matrix(1.00164 0 0 1 1894 1087)"/></g></g></g></g></svg>