<svg width="935" height="1239" xmlns="http://www.w3.org/2000/svg" xmlns:xlink="http://www.w3.org/1999/xlink" overflow="hidden"><defs><clipPath id="clip0"><rect x="3043" y="618" width="935" height="1239"/></clipPath><linearGradient x1="3510.5" y1="1852" x2="3510.5" y2="1318" gradientUnits="userSpaceOnUse" spreadMethod="reflect" id="fill1"><stop offset="0" stop-color="#38A3A5"/><stop offset="0.04" stop-color="#38A4A6"/><stop offset="0.08" stop-color="#39A6A8"/><stop offset="0.12" stop-color="#39A8AA"/><stop offset="0.16" stop-color="#3AA9AC"/><stop offset="0.2" stop-color="#3BABAD"/><stop offset="0.24" stop-color="#3BADAF"/><stop offset="0.28" stop-color="#3CAEB0"/><stop offset="0.32" stop-color="#3CAFB2"/><stop offset="0.36" stop-color="#3DB1B3"/><stop offset="0.4" stop-color="#3DB2B5"/><stop offset="0.44" stop-color="#3DB3B6"/><stop offset="0.48" stop-color="#3EB4B7"/><stop offset="0.52" stop-color="#3EB5B8"/><stop offset="0.56" stop-color="#3FB6B9"/><stop offset="0.6" stop-color="#3FB7BA"/><stop offset="0.64" stop-color="#3FB8BB"/><stop offset="0.68" stop-color="#3FB9BB"/><stop offset="0.72" stop-color="#40B9BC"/><stop offset="0.76" stop-color="#40BABD"/><stop offset="0.8" stop-color="#40BABD"/><stop offset="0.84" stop-color="#40BBBE"/><stop offset="0.88" stop-color="#40BBBE"/><stop offset="0.92" stop-color="#40BBBE"/><stop offset="0.96" stop-color="#40BBBE"/><stop offset="1" stop-color="#41BCBF"/></linearGradient><clipPath id="clip2"><rect x="3242" y="709" width="537" height="536"/></clipPath><clipPath id="clip3"><rect x="3242" y="709" width="537" height="536"/></clipPath><clipPath id="clip4"><rect x="3242" y="709" width="537" height="536"/></clipPath></defs><g clip-path="url(#clip0)" transform="translate(-3043 -618)"><path d="M3048 684.669C3048 650.61 3075.61 623 3109.67 623L3911.33 623C3945.39 623 3973 650.61 3973 684.669L3973 1790.33C3973 1824.39 3945.39 1852 3911.33 1852L3109.67 1852C3075.61 1852 3048 1824.39 3048 1790.33Z" stroke="#49C791" stroke-width="10.3125" stroke-miterlimit="8" fill="#F2F2F2" fill-rule="evenodd" fill-opacity="0.560784"/><path d="M3079 698.174C3079 673.778 3098.78 654 3123.17 654L3897.83 654C3922.22 654 3942 673.778 3942 698.174L3942 1299.83C3942 1324.22 3922.22 1344 3897.83 1344L3123.17 1344C3098.78 1344 3079 1324.22 3079 1299.83Z" fill="#FFFFFF" fill-rule="evenodd"/><path d="M3048 1318 3089.7 1318 3931.3 1318 3973 1318 3973 1485.18 3973 1485.18 3973 1810.55C3973 1833.44 3954.33 1852 3931.3 1852L3089.7 1852C3066.67 1852 3048 1833.44 3048 1810.55L3048 1359.45 3048 1359.45Z" fill="url(#fill1)" fill-rule="evenodd"/><path d="M3226 1609.67C3226 1596.04 3237.04 1585 3250.67 1585L3770.33 1585C3783.96 1585 3795 1596.04 3795 1609.67L3795 1708.33C3795 1721.96 3783.96 1733 3770.33 1733L3250.67 1733C3237.04 1733 3226 1721.96 3226 1708.33Z" stroke="#49C791" stroke-width="10.3125" stroke-miterlimit="8" fill="#57CC99" fill-rule="evenodd"/><text fill="#FFFFFF" font-family="Segoe UI,Segoe UI_MSFontService,sans-serif" font-weight="700" font-size="83" transform="matrix(1 0 0 1 3313.64 1690)">Play Now!<tspan font-family="Arial,Arial_MSFontService,sans-serif" font-weight="400" font-size="83" x="48.6648" y="-196">X and O</tspan></text><g clip-path="url(#clip2)"><g clip-path="url(#clip3)"><g clip-path="url(#clip4)"><path d="M3389.83 1115.3 3453.76 1051.37C3460.21 1044.92 3460.21 1034.46 3453.76 1028.01L3453.76 1028.01C3447.31 1021.55 3436.84 1021.55 3430.39 1028.01L3366.47 1091.93 3302.54 1028.01C3296.09 1021.55 3285.63 1021.55 3279.18 1028.01L3279.18 1028.01C3272.72 1034.46 3272.72 1044.92 3279.18 1051.37L3343.1 1115.3 3279.18 1179.22C3272.72 1185.67 3272.72 1196.14 3279.18 1202.59 3285.63 1209.04 3296.09 1209.04 3302.54 1202.59L3366.47 1138.66 3430.39 1202.59C3436.84 1209.04 3447.31 1209.04 3453.76 1202.59 3460.21 1196.14 3460.21 1185.67 3453.76 1179.22L3389.83 1115.3Z" fill="#E94141"/><path d="M3654.53 1023.17C3603.65 1023.17 3562.4 1064.42 3562.4 1115.3 3562.4 1166.18 3603.65 1207.43 3654.53 1207.43 3705.41 1207.43 3746.66 1166.18 3746.66 1115.3 3746.66 1064.42 3705.41 1023.17 3654.53 1023.17ZM3654.53 1178.22C3619.78 1178.22 3591.61 1150.05 3591.61 1115.3 3591.61 1080.55 3619.78 1052.37 3654.53 1052.37 3689.28 1052.37 3717.46 1080.55 3717.46 1115.3 3717.46 1150.05 3689.28 1178.22 3654.53 1178.22Z" fill="#0086F4"/><path d="M3631.17 837.703 3567.24 773.78C3560.79 767.328 3560.79 756.865 3567.24 750.413L3567.24 750.413C3573.69 743.96 3584.16 743.96 3590.61 750.413L3654.53 814.336 3718.46 750.413C3724.91 743.96 3735.37 743.96 3741.82 750.413L3741.82 750.413C3748.28 756.865 3748.28 767.328 3741.82 773.78L3677.9 837.703 3741.82 901.626C3748.28 908.079 3748.28 918.541 3741.82 924.994 3735.37 931.446 3724.91 931.446 3718.46 924.994L3654.53 861.071 3590.61 924.994C3584.16 931.446 3573.69 931.446 3567.24 924.994 3560.79 918.541 3560.79 908.079 3567.24 901.626L3631.17 837.703Z" fill="#E94141"/><path d="M3274.34 837.703C3274.34 888.583 3315.59 929.835 3366.47 929.835 3417.35 929.835 3458.6 888.583 3458.6 837.703 3458.6 786.824 3417.35 745.571 3366.47 745.571 3315.59 745.571 3274.34 786.824 3274.34 837.703ZM3303.54 837.703C3303.54 802.954 3331.72 774.778 3366.47 774.778 3401.22 774.778 3429.39 802.954 3429.39 837.703 3429.39 872.452 3401.22 900.628 3366.47 900.628 3331.72 900.627 3303.54 872.452 3303.54 837.703Z" fill="#0086F4"/><path d="M3466.43 1039.69C3466.43 1033.18 3463.9 1027.07 3459.3 1022.47 3449.8 1012.97 3434.35 1012.97 3424.85 1022.47L3366.47 1080.85 3308.08 1022.47C3298.59 1012.97 3283.13 1012.97 3273.63 1022.47 3269.03 1027.07 3266.5 1033.19 3266.5 1039.69 3266.5 1046.2 3269.03 1052.32 3273.63 1056.92L3332.02 1115.3 3273.63 1173.68C3269.03 1178.28 3266.5 1184.4 3266.5 1190.9 3266.5 1197.41 3269.03 1203.53 3273.63 1208.13 3278.23 1212.73 3284.35 1215.26 3290.86 1215.26 3297.37 1215.26 3303.48 1212.73 3308.08 1208.13L3366.47 1149.75 3424.85 1208.13C3429.45 1212.73 3435.57 1215.26 3442.07 1215.26 3448.58 1215.26 3454.7 1212.73 3459.3 1208.13 3463.9 1203.53 3466.43 1197.41 3466.43 1190.9 3466.43 1184.4 3463.9 1178.28 3459.3 1173.68L3400.92 1115.3 3459.3 1056.92C3463.9 1052.32 3466.43 1046.2 3466.43 1039.69ZM3448.22 1045.83 3384.29 1109.76C3381.23 1112.82 3381.23 1117.78 3384.29 1120.84L3448.22 1184.76C3449.86 1186.4 3450.76 1188.58 3450.76 1190.9 3450.76 1193.23 3449.86 1195.41 3448.22 1197.05 3446.58 1198.69 3444.4 1199.59 3442.07 1199.59 3439.75 1199.59 3437.57 1198.69 3435.93 1197.05L3372.01 1133.12C3370.48 1131.59 3368.47 1130.83 3366.47 1130.83 3364.46 1130.83 3362.46 1131.59 3360.93 1133.12L3297 1197.05C3295.36 1198.69 3293.18 1199.59 3290.86 1199.59 3288.54 1199.59 3286.36 1198.69 3284.72 1197.05 3283.08 1195.41 3282.18 1193.23 3282.18 1190.9 3282.18 1188.58 3283.08 1186.4 3284.72 1184.76L3348.64 1120.84C3351.7 1117.78 3351.7 1112.82 3348.64 1109.76L3284.72 1045.83C3283.08 1044.19 3282.18 1042.01 3282.18 1039.69 3282.18 1037.37 3283.08 1035.19 3284.72 1033.55 3288.11 1030.16 3293.62 1030.16 3297 1033.55L3360.93 1097.47C3363.99 1100.53 3368.95 1100.53 3372.01 1097.47L3435.93 1033.55C3439.32 1030.16 3444.83 1030.16 3448.22 1033.55 3449.86 1035.19 3450.76 1037.37 3450.76 1039.69 3450.76 1042.01 3449.86 1044.19 3448.22 1045.83Z"/><path d="M3672.95 1017.03C3668.69 1016.24 3664.6 1019.04 3663.81 1023.3 3663.01 1027.55 3665.82 1031.64 3670.08 1032.44 3709.91 1039.86 3738.83 1074.71 3738.83 1115.3 3738.83 1161.78 3701.01 1199.59 3654.53 1199.59 3608.05 1199.59 3570.24 1161.78 3570.24 1115.3 3570.24 1075.5 3598.48 1040.79 3637.38 1032.75 3641.62 1031.87 3644.35 1027.73 3643.47 1023.49 3642.6 1019.25 3638.45 1016.53 3634.21 1017.4 3588.06 1026.93 3554.56 1068.11 3554.56 1115.3 3554.56 1170.42 3599.41 1215.27 3654.53 1215.27 3709.66 1215.27 3754.5 1170.42 3754.5 1115.3 3754.5 1067.16 3720.2 1025.84 3672.95 1017.03Z"/><path d="M3583.77 1115.3C3583.77 1154.32 3615.51 1186.06 3654.53 1186.06 3693.55 1186.06 3725.29 1154.32 3725.29 1115.3 3725.29 1076.28 3693.55 1044.54 3654.53 1044.54 3615.51 1044.54 3583.77 1076.28 3583.77 1115.3ZM3654.53 1060.21C3684.91 1060.21 3709.62 1084.92 3709.62 1115.3 3709.62 1145.67 3684.91 1170.39 3654.53 1170.39 3624.16 1170.39 3599.44 1145.67 3599.44 1115.3 3599.44 1084.92 3624.16 1060.21 3654.53 1060.21Z"/><path d="M3554.57 913.31C3554.57 919.816 3557.1 925.933 3561.7 930.534 3566.3 935.135 3572.42 937.669 3578.93 937.669 3585.43 937.669 3591.55 935.135 3596.15 930.534L3611.69 914.998C3614.75 911.938 3614.75 906.975 3611.69 903.916 3608.63 900.856 3603.67 900.854 3600.61 903.915L3585.07 919.451C3583.43 921.091 3581.25 921.996 3578.93 921.996 3576.6 921.996 3574.42 921.092 3572.78 919.451 3571.14 917.811 3570.24 915.629 3570.24 913.31 3570.24 910.989 3571.14 908.807 3572.78 907.167L3636.71 843.244C3639.77 840.183 3639.77 835.221 3636.71 832.161L3572.78 768.237C3571.14 766.597 3570.24 764.416 3570.24 762.095 3570.24 759.774 3571.14 757.593 3572.78 755.953 3576.17 752.565 3581.68 752.567 3585.07 755.953L3648.99 819.877C3650.46 821.346 3652.45 822.171 3654.53 822.171 3656.61 822.171 3658.6 821.346 3660.08 819.877L3724 755.953C3727.39 752.567 3732.9 752.566 3736.28 755.954 3737.92 757.593 3738.83 759.775 3738.83 762.096 3738.83 764.416 3737.93 766.597 3736.28 768.237L3672.36 832.161C3669.3 835.223 3669.3 840.184 3672.36 843.244L3736.28 907.167C3737.92 908.807 3738.83 910.989 3738.83 913.31 3738.83 915.629 3737.92 917.811 3736.28 919.451 3734.64 921.091 3732.46 921.996 3730.14 921.996 3727.82 921.996 3725.64 921.092 3724 919.451L3660.07 855.529C3657.01 852.47 3652.05 852.468 3648.99 855.529L3625.86 878.662C3622.8 881.723 3622.8 886.685 3625.86 889.744 3628.92 892.804 3633.88 892.806 3636.94 889.745L3654.53 872.153 3712.91 930.534C3717.51 935.135 3723.63 937.669 3730.14 937.669 3736.64 937.669 3742.76 935.135 3747.36 930.534 3751.96 925.933 3754.5 919.815 3754.5 913.31 3754.5 906.802 3751.96 900.685 3747.36 896.084L3688.98 837.703 3747.36 779.321C3751.96 774.721 3754.5 768.603 3754.5 762.096 3754.5 755.589 3751.96 749.472 3747.36 744.87 3737.86 735.374 3722.41 735.374 3712.91 744.87L3654.53 803.252 3596.15 744.869C3586.65 735.374 3571.2 735.372 3561.7 744.87 3557.1 749.471 3554.57 755.589 3554.57 762.096 3554.57 768.603 3557.1 774.719 3561.7 779.32L3620.08 837.702 3561.7 896.084C3557.1 900.685 3554.57 906.803 3554.57 913.31Z"/><path d="M3366.47 937.671C3386.1 937.671 3405.11 931.975 3421.45 921.198 3425.06 918.814 3426.06 913.952 3423.67 910.34 3421.29 906.727 3416.43 905.73 3412.82 908.113 3399.05 917.196 3383.02 921.996 3366.47 921.996 3319.99 921.996 3282.17 884.182 3282.17 837.702 3282.17 791.222 3319.99 753.406 3366.47 753.406 3412.95 753.406 3450.76 791.221 3450.76 837.702 3450.76 854.746 3445.7 871.165 3436.12 885.185 3433.68 888.76 3434.6 893.636 3438.17 896.078 3441.74 898.52 3446.62 897.6 3449.06 894.029 3460.43 877.391 3466.44 857.913 3466.44 837.702 3466.44 782.578 3421.59 737.732 3366.47 737.732 3311.35 737.732 3266.5 782.579 3266.5 837.703 3266.5 892.826 3311.35 937.671 3366.47 937.671Z"/><path d="M3366.47 766.941C3327.45 766.941 3295.71 798.685 3295.71 837.703 3295.71 876.721 3327.45 908.464 3366.47 908.464 3405.49 908.464 3437.23 876.721 3437.23 837.703 3437.23 798.685 3405.49 766.941 3366.47 766.941ZM3366.47 892.79C3336.09 892.79 3311.38 868.079 3311.38 837.703 3311.38 807.327 3336.09 782.615 3366.47 782.615 3396.84 782.615 3421.56 807.327 3421.56 837.703 3421.56 868.079 3396.84 892.79 3366.47 892.79Z"/><path d="M3770.16 968.663 3518.34 968.663 3518.34 716.837C3518.34 712.508 3514.83 709 3510.5 709 3506.17 709 3502.66 712.508 3502.66 716.837L3502.66 968.663 3250.84 968.663C3246.51 968.663 3243 972.171 3243 976.5 3243 980.829 3246.51 984.337 3250.84 984.337L3502.66 984.337 3502.66 1236.16C3502.66 1240.49 3506.17 1244 3510.5 1244 3514.83 1244 3518.34 1240.49 3518.34 1236.16L3518.34 984.337 3770.16 984.337C3774.49 984.337 3778 980.829 3778 976.5 3778 972.171 3774.49 968.663 3770.16 968.663Z"/><path d="M3541.12 998.135C3536.8 998.135 3533.29 1001.64 3533.29 1005.97L3533.29 1006.95C3533.29 1011.28 3536.8 1014.79 3541.12 1014.79 3545.45 1014.79 3548.96 1011.28 3548.96 1006.95L3548.96 1005.97C3548.96 1001.64 3545.45 998.135 3541.12 998.135Z"/><path d="M3479.88 998.135C3475.55 998.135 3472.04 1001.64 3472.04 1005.97L3472.04 1006.95C3472.04 1011.28 3475.55 1014.79 3479.88 1014.79 3484.2 1014.79 3487.71 1011.28 3487.71 1006.95L3487.71 1005.97C3487.71 1001.64 3484.2 998.135 3479.88 998.135Z"/><path d="M3541.12 954.865C3545.45 954.865 3548.96 951.357 3548.96 947.028L3548.96 946.048C3548.96 941.719 3545.45 938.211 3541.12 938.211 3536.8 938.211 3533.29 941.719 3533.29 946.048L3533.29 947.028C3533.29 951.357 3536.8 954.865 3541.12 954.865Z"/><path d="M3479.88 954.865C3484.2 954.865 3487.71 951.357 3487.71 947.028L3487.71 946.048C3487.71 941.719 3484.2 938.211 3479.88 938.211 3475.55 938.211 3472.04 941.719 3472.04 946.048L3472.04 947.028C3472.04 951.357 3475.55 954.865 3479.88 954.865Z"/></g></g></g></g></svg>