<svg width="2061" height="588" xmlns="http://www.w3.org/2000/svg" xmlns:xlink="http://www.w3.org/1999/xlink" overflow="hidden"><defs><clipPath id="clip0"><rect x="1170" y="266" width="2061" height="588"/></clipPath><clipPath id="clip1"><rect x="2037" y="529" width="326" height="325"/></clipPath><clipPath id="clip2"><rect x="2037" y="529" width="326" height="325"/></clipPath><clipPath id="clip3"><rect x="2037" y="529" width="326" height="325"/></clipPath></defs><g clip-path="url(#clip0)" transform="translate(-1170 -266)"><path d="M1170 416.001C1170 339.233 1232.23 277 1309 277L3091 277C3167.77 277 3230 339.233 3230 416.001L3230 416.001C3230 492.769 3167.77 555.002 3091 555.002L1309 555C1232.23 555 1170 492.767 1170 415.999Z" fill="#F2F2F2" fill-rule="evenodd" fill-opacity="0.278431"/><text fill="#38A3A5" font-family="Segoe UI,Segoe UI_MSFontService,sans-serif" font-weight="700" font-size="165" transform="matrix(1 0 0 1 1391.54 477)">Classic<tspan fill="#1D5979" font-size="165" x="555.729" y="0">Game Station</tspan></text><g clip-path="url(#clip1)"><g clip-path="url(#clip2)"><g clip-path="url(#clip3)"><path d="M320.303 22.2631 320.303 201.057C320.303 210.763 312.438 218.628 302.733 218.628L22.3952 218.628C12.6896 218.628 4.82485 210.763 4.82485 201.057L4.82485 22.2631C4.82485 12.5576 12.6896 4.68647 22.3952 4.68647L302.733 4.68647C312.438 4.68647 320.303 12.5576 320.303 22.2631Z" fill="#555760" transform="matrix(1.00308 0 0 1 2037 529)"/><path d="M320.303 22.2631 320.303 201.057C320.303 210.763 312.438 218.628 302.733 218.628L283.703 218.628C293.408 218.628 301.273 210.763 301.273 201.057L301.273 22.2631C301.273 12.5576 293.408 4.68647 283.703 4.68647L302.733 4.68647C312.438 4.68647 320.303 12.5576 320.303 22.2631Z" fill="#36383F" transform="matrix(1.00308 0 0 1 2037 529)"/><path d="M23.8526 23.732 301.275 23.732 301.275 199.585 23.8526 199.585Z" fill="#52DEFF" transform="matrix(1.00308 0 0 1 2037 529)"/><path d="M281.391 23.732 301.275 23.732 301.275 199.585 281.391 199.585Z" fill="#55BAFF" transform="matrix(1.00308 0 0 1 2037 529)"/><path d="M269.19 309.466C265.445 313.668 260.913 316.785 255.663 318.48 249.925 320.339 243.882 320.327 237.864 318.721 224.16 315.058 210.576 303.099 200.965 286.011 197.449 287.966 193.393 289.071 189.095 289.071 182.214 289.071 175.994 286.24 171.531 281.676 170.344 280.457 168.948 279.492 167.431 278.826 165.907 278.159 164.263 277.797 162.562 277.797 159.166 277.797 155.967 279.245 153.593 281.676 149.137 286.24 142.916 289.071 136.035 289.071 131.732 289.071 127.682 287.966 124.165 286.011 110.334 310.608 88.2565 324.567 69.4611 318.48 64.2179 316.785 59.6794 313.668 55.9342 309.466 47.9108 300.459 43.4865 286.411 43.4865 270.377 43.4865 260.779 45.0734 250.464 48.4186 240.092 58.5114 208.817 81.2804 187.362 102.323 187.445L222.928 187.445C224.255 187.445 225.588 187.527 226.927 187.699 246.757 190.193 267.267 210.849 276.706 240.092 285.643 267.787 282.025 295.063 269.19 309.466Z" fill="#EEF6FF" transform="matrix(1.00308 0 0 1 2037 529)"/><path d="M276.706 240.092C285.643 267.787 282.025 295.063 269.19 309.466 265.445 313.668 260.913 316.785 255.663 318.48 249.925 320.339 243.882 320.327 237.864 318.721 243.095 317.026 247.614 313.909 251.353 309.72 264.188 295.317 267.806 268.041 258.869 240.353 248.795 209.129 226.102 187.699 205.091 187.699L226.927 187.699C246.757 190.193 267.267 210.849 276.706 240.092Z" fill="#DAE6EF" transform="matrix(1.00308 0 0 1 2037 529)"/><path d="M142.656 266.892C138.93 270.891 133.039 271.672 128.488 269.088 127.707 268.65 126.971 268.111 126.285 267.476 121.601 263.115 121.34 255.777 125.695 251.087 126.533 250.185 127.472 249.449 128.488 248.878 132.766 246.465 138.282 246.967 142.066 250.496 146.75 254.857 147.017 262.201 142.656 266.892Z" fill="#555760" transform="matrix(1.00308 0 0 1 2037 529)"/><path d="M142.656 266.892C138.93 270.891 133.039 271.672 128.488 269.088 129.504 268.524 130.443 267.787 131.275 266.892 135.635 262.201 135.369 254.857 130.691 250.496 130.005 249.861 129.269 249.322 128.488 248.878 132.766 246.465 138.282 246.967 142.066 250.496 146.75 254.857 147.017 262.201 142.656 266.892Z" fill="#36383F" transform="matrix(1.00308 0 0 1 2037 529)"/><path d="M199.302 266.892C195.576 270.891 189.686 271.672 185.134 269.088 184.354 268.65 183.617 268.111 182.932 267.476 178.247 263.115 177.987 255.777 182.341 251.087 183.179 250.185 184.119 249.449 185.134 248.878 189.413 246.465 194.929 246.967 198.712 250.496 203.397 254.857 203.663 262.201 199.302 266.892Z" fill="#555760" transform="matrix(1.00308 0 0 1 2037 529)"/><path d="M199.302 266.892C195.576 270.891 189.686 271.672 185.134 269.088 186.15 268.524 187.089 267.787 187.921 266.892 192.282 262.201 192.015 254.857 187.337 250.496 186.651 249.861 185.915 249.322 185.134 248.878 189.413 246.465 194.929 246.967 198.712 250.496 203.397 254.857 203.663 262.201 199.302 266.892Z" fill="#36383F" transform="matrix(1.00308 0 0 1 2037 529)"/><path d="M202.713 187.446 190.018 223.41 134.982 223.41 122.287 187.446Z" fill="#A8B3BA" transform="matrix(1.00308 0 0 1 2037 529)"/><path d="M186.26 187.446 173.565 223.41 190.018 223.41 202.713 187.446Z" fill="#879299" transform="matrix(1.00308 0 0 1 2037 529)"/><path d="M132.087 131.82C124 142.738 111.07 149.841 96.4767 149.937 96.3688 149.943 96.2672 149.943 96.1657 149.943 71.4797 149.943 51.4718 129.903 51.4718 105.186 51.4718 80.4616 71.4797 60.4284 96.1657 60.4284 96.2545 60.4284 96.3498 60.4284 96.4386 60.4347 110.365 60.5109 122.781 66.9665 130.919 77.0402L104.151 103.846Z" fill="#FFF148" transform="matrix(1.00308 0 0 1 2037 529)"/><path d="M132.087 131.82C124 142.738 111.07 149.841 96.4767 149.937 103.059 149.568 114.098 137.717 114.098 131.77L95.1691 112.816C90.2179 107.858 90.2179 99.8283 95.1691 94.8771L112.447 77.5671C112.447 73.1554 102.31 60.8219 96.4386 60.4347 110.365 60.5109 122.781 66.9665 130.919 77.0402L104.151 103.846Z" fill="#FFCF4A" transform="matrix(1.00308 0 0 1 2037 529)"/><path d="M255.898 134.194C255.898 142.751 248.96 149.943 240.143 149.943 238.778 149.943 237.452 149.772 236.195 149.442 228.635 147.499 223.385 140.085 224.541 131.941L228.337 105.186 251.95 105.186 255.739 131.941C255.847 132.703 255.898 133.452 255.898 134.194Z" fill="#EEF6FF" transform="matrix(1.00308 0 0 1 2037 529)"/><path d="M255.898 134.194C255.898 142.751 248.96 149.943 240.143 149.943 238.778 149.943 237.452 149.772 236.195 149.442 240.327 147.664 243.311 141.418 243.311 134.201 243.311 133.458 243.279 132.703 243.215 131.941L240.924 105.186 251.95 105.186 255.739 131.941C255.847 132.703 255.898 133.452 255.898 134.194Z" fill="#DAE6EF" transform="matrix(1.00308 0 0 1 2037 529)"/><path d="M270.993 105.186 209.294 105.186 212.194 84.7145C213.984 72.0954 223.919 62.4152 236.22 60.7013 237.503 60.5236 238.816 60.4284 240.143 60.4284 254.197 60.4284 266.111 70.7814 268.086 84.7145Z" fill="#FF455C" transform="matrix(1.00308 0 0 1 2037 529)"/><path d="M270.993 105.186 252.838 105.186 251.042 84.7145C249.938 72.0954 243.806 62.4152 236.22 60.7013 237.503 60.5236 238.816 60.4284 240.143 60.4284 254.197 60.4284 266.111 70.7814 268.086 84.7145Z" fill="#E51C5F" transform="matrix(1.00308 0 0 1 2037 529)"/><path d="M320.239 78.8982C317.61 78.8982 315.478 81.0291 315.478 83.6589L315.478 201.391C315.478 208.47 309.731 214.229 302.666 214.229L269.536 214.229C267.349 210.833 264.99 207.634 262.488 204.679L301.211 204.679C303.84 204.679 305.971 202.548 305.971 199.918L305.971 23.8316C305.971 21.2024 303.84 19.0709 301.211 19.0709L85.3683 19.0709C82.7391 19.0709 80.6076 21.2018 80.6076 23.8316 80.6076 26.4615 82.7391 28.5924 85.3683 28.5924L296.451 28.5924 296.451 195.157 252.895 195.157C243.297 187.259 232.735 182.998 222.742 183.018L173.002 183.018C170.373 183.018 168.241 185.149 168.241 187.779 168.241 190.409 170.373 192.54 173.002 192.54L195.919 192.54 186.585 218.982 138.286 218.982 128.951 192.54 150.727 192.54C153.356 192.54 155.488 190.409 155.488 187.779 155.488 185.149 153.356 183.018 150.727 183.018L102.139 183.018C92.1533 183.018 81.653 187.29 72.1024 195.157L28.5492 195.157 28.5492 28.5924 62.9643 28.5924C65.5935 28.5924 67.725 26.4615 67.725 23.8316 67.725 21.2018 65.5935 19.0709 62.9643 19.0709L23.7885 19.0709C21.1593 19.0709 19.0277 21.2018 19.0277 23.8316L19.0277 199.918C19.0277 202.547 21.1593 204.679 23.7885 204.679L62.5117 204.679C60.0088 207.634 57.6507 210.832 55.4633 214.229L22.3336 214.229C15.2686 214.229 9.52148 208.47 9.52148 201.391L9.52148 22.359C9.52148 15.2801 15.2686 9.52148 22.3336 9.52148L302.539 9.52148C309.603 9.52148 315.351 15.2801 315.351 22.359L315.351 61.6567C315.351 64.2859 317.482 66.4174 320.112 66.4174 322.741 66.4174 324.872 64.2865 324.872 61.6567L324.872 22.359C324.872 10.0299 314.853 2.70617e-14 302.538 2.70617e-14L22.3336 2.70617e-14C10.0185 2.70617e-14 1.80411e-14 10.0299 1.80411e-14 22.359L1.80411e-14 201.391C1.80411e-14 213.72 10.0185 223.75 22.3336 223.75L50.0424 223.75C47.6188 228.587 45.5266 233.692 43.8248 238.966 34.5496 267.715 37.8828 296.761 52.3167 312.963 56.7423 317.93 61.9963 321.423 67.9326 323.342 87.6243 329.716 110.572 317.353 126.033 292.431 129.204 293.571 132.572 294.163 135.969 294.163 143.929 294.163 151.375 291.027 156.936 285.331 158.472 283.758 160.448 282.891 162.499 282.891 164.551 282.891 166.526 283.757 168.062 285.33 173.624 291.026 181.07 294.163 189.03 294.163 192.427 294.163 195.795 293.571 198.965 292.431 211.719 312.989 229.566 325.001 246.477 325 250.068 325 253.617 324.458 257.065 323.342 263.002 321.423 268.256 317.93 272.682 312.963 287.116 296.761 290.45 267.715 281.174 238.966 279.472 233.692 277.38 228.587 274.956 223.75L302.665 223.75C314.979 223.75 324.999 213.72 324.999 201.391L324.999 83.6589C325 81.0297 322.868 78.8982 320.239 78.8982ZM265.573 306.629C262.289 310.315 258.441 312.891 254.135 314.283 238.17 319.455 217.98 307.004 205.048 284.012 203.765 281.729 200.881 280.911 198.591 282.182 195.688 283.791 192.382 284.641 189.031 284.641 183.657 284.641 178.63 282.524 174.875 278.678 171.532 275.255 167.138 273.37 162.5 273.37 157.862 273.37 153.468 275.255 150.124 278.679 146.37 282.524 141.343 284.641 135.969 284.641 132.618 284.641 129.312 283.791 126.409 282.182 124.119 280.912 121.234 281.73 119.952 284.012 107.019 307.004 86.834 319.453 70.8639 314.283 66.559 312.891 62.711 310.315 59.4267 306.629 47.3833 293.111 44.7548 267.094 52.8867 241.889 62.1213 213.269 82.8172 192.54 102.152 192.54L118.855 192.54 130.429 225.328C131.101 227.231 132.9 228.504 134.918 228.504L189.954 228.504C191.972 228.504 193.771 227.231 194.443 225.328L206.017 192.54 222.867 192.54C242.182 192.54 262.88 213.271 272.114 241.889 280.245 267.094 277.617 293.111 265.573 306.629Z" transform="matrix(1.00308 0 0 1 2037 529)"/><path d="M145.25 247.345C142.055 244.368 137.895 242.808 133.527 242.97 129.163 243.126 125.12 244.975 122.146 248.175 116.009 254.778 116.381 265.148 122.976 271.292 126.025 274.134 129.954 275.679 134.099 275.679 134.298 275.679 134.499 275.675 134.7 275.668 139.064 275.512 143.106 273.663 146.08 270.461 152.216 263.859 151.843 253.49 145.25 247.345ZM139.105 263.98C137.863 265.316 136.177 266.088 134.358 266.154 132.538 266.207 130.8 265.571 129.467 264.327 126.709 261.757 126.553 257.42 129.12 254.658 130.362 253.322 132.048 252.55 133.869 252.485 133.953 252.482 134.036 252.48 134.119 252.48 135.847 252.48 137.486 253.125 138.759 254.31L138.759 254.311C141.516 256.881 141.672 261.218 139.105 263.98Z" transform="matrix(1.00308 0 0 1 2037 529)"/><path d="M201.896 247.345C198.701 244.368 194.54 242.808 190.173 242.97 185.809 243.126 181.766 244.975 178.792 248.176 172.656 254.778 173.027 265.149 179.621 271.292 182.671 274.134 186.6 275.679 190.744 275.679 190.944 275.679 191.145 275.675 191.346 275.668 195.71 275.512 199.752 273.663 202.726 270.461 208.863 263.859 208.491 253.49 201.896 247.345ZM195.751 263.98C194.51 265.316 192.824 266.088 191.004 266.154 189.184 266.207 187.447 265.571 186.113 264.327 183.355 261.757 183.2 257.42 185.767 254.658 187.008 253.322 188.695 252.55 190.515 252.485 190.599 252.482 190.682 252.48 190.765 252.48 192.494 252.48 194.133 253.125 195.406 254.31L195.406 254.311C198.164 256.881 198.319 261.218 195.751 263.98Z" transform="matrix(1.00308 0 0 1 2037 529)"/><path d="M110.848 225.339 101.343 225.339 101.343 215.814C101.343 213.185 99.2113 211.054 96.5821 211.054 93.9529 211.054 91.8214 213.185 91.8214 215.814L91.8214 225.339 82.3164 225.339C79.6872 225.339 77.5556 227.469 77.5556 230.099 77.5556 232.729 79.6872 234.86 82.3164 234.86L91.8214 234.86 91.8214 244.384C91.8214 247.014 93.9529 249.145 96.5821 249.145 99.2113 249.145 101.343 247.014 101.343 244.384L101.343 234.86 110.848 234.86C113.477 234.86 115.609 232.729 115.609 230.099 115.609 227.469 113.477 225.339 110.848 225.339Z" transform="matrix(1.00308 0 0 1 2037 529)"/><path d="M96.1028 56.0022C68.832 56.0022 46.6457 78.2151 46.6457 105.519 46.6457 132.823 68.832 155.036 96.1028 155.036 111.694 155.036 126.553 147.542 135.851 134.989 137.254 133.095 137.06 130.459 135.394 128.791L110.816 104.181 134.227 80.739C135.946 79.0162 136.091 76.274 134.56 74.3818 125.115 62.7008 111.098 56.0022 96.1028 56.0022ZM100.719 100.817C98.8628 102.676 98.8628 105.687 100.719 107.544L125.615 132.474C118.059 140.809 107.51 145.514 96.1022 145.514 74.0816 145.514 56.1666 127.573 56.1666 105.519 56.1666 83.4653 74.0816 65.5237 96.1022 65.5237 106.779 65.5237 116.844 69.7334 124.305 77.1989Z" transform="matrix(1.00308 0 0 1 2037 529)"/><path d="M274.521 108.64C275.425 107.598 275.833 106.217 275.64 104.851L272.737 84.3844C270.442 68.2036 256.401 56.0022 240.077 56.0022 223.752 56.0022 209.711 68.2036 207.416 84.3851L204.513 104.851C204.32 106.216 204.728 107.598 205.632 108.64 206.536 109.682 207.848 110.28 209.227 110.28L222.786 110.28 219.761 131.61C218.924 137.509 220.684 143.472 224.589 147.97 228.488 152.46 234.133 155.036 240.076 155.036 246.019 155.036 251.664 152.46 255.563 147.97 259.467 143.472 261.228 137.509 260.39 131.61L257.365 110.28 270.924 110.28C272.305 110.28 273.617 109.681 274.521 108.64ZM248.374 141.727C246.285 144.134 243.26 145.514 240.077 145.514 236.894 145.514 233.869 144.134 231.78 141.727 229.685 139.313 228.74 136.113 229.19 132.945L232.404 110.279 247.751 110.279 250.965 132.945C251.414 136.113 250.47 139.314 248.374 141.727ZM214.711 100.758 216.844 85.7219C218.477 74.2066 228.465 65.523 240.077 65.523 251.689 65.523 261.677 74.206 263.31 85.7213L265.443 100.758Z" transform="matrix(1.00308 0 0 1 2037 529)"/><path d="M141.064 105.106C141.064 107.73 138.936 109.857 136.31 109.857 133.685 109.857 131.556 107.73 131.556 105.106 131.556 102.482 133.685 100.354 136.31 100.354 138.936 100.354 141.064 102.482 141.064 105.106Z" transform="matrix(1.00308 0 0 1 2037 529)"/><path d="M158.088 105.097C158.088 107.721 155.959 109.848 153.334 109.848 150.708 109.848 148.58 107.721 148.58 105.097 148.58 102.473 150.708 100.346 153.334 100.346 155.959 100.346 158.088 102.473 158.088 105.097Z" transform="matrix(1.00308 0 0 1 2037 529)"/><path d="M175.5 105.106C175.5 107.73 173.372 109.857 170.746 109.857 168.121 109.857 165.992 107.73 165.992 105.106 165.992 102.482 168.121 100.354 170.746 100.354 173.372 100.354 175.5 102.482 175.5 105.106Z" transform="matrix(1.00308 0 0 1 2037 529)"/><path d="M193.45 105.097C193.45 107.721 191.322 109.848 188.697 109.848 186.071 109.848 183.943 107.721 183.943 105.097 183.943 102.473 186.071 100.346 188.697 100.346 191.322 100.346 193.45 102.473 193.45 105.097Z" transform="matrix(1.00308 0 0 1 2037 529)"/><path d="M98.3753 82.1939C98.3753 84.8179 96.247 86.9451 93.6215 86.9451 90.9961 86.9451 88.8678 84.8179 88.8678 82.1939 88.8678 79.5698 90.9961 77.4426 93.6215 77.4426 96.247 77.4426 98.3753 79.5698 98.3753 82.1939Z" transform="matrix(1.00308 0 0 1 2037 529)"/><path d="M218.778 230.101C218.778 232.725 216.649 234.852 214.024 234.852 211.398 234.852 209.27 232.725 209.27 230.101 209.27 227.477 211.398 225.349 214.024 225.349 216.649 225.349 218.778 227.477 218.778 230.101Z" transform="matrix(1.00308 0 0 1 2037 529)"/><path d="M247.31 230.101C247.31 232.725 245.182 234.852 242.557 234.852 239.931 234.852 237.803 232.725 237.803 230.101 237.803 227.477 239.931 225.349 242.557 225.349 245.182 225.349 247.31 227.477 247.31 230.101Z" transform="matrix(1.00308 0 0 1 2037 529)"/><path d="M233.047 215.813C233.047 218.437 230.919 220.564 228.293 220.564 225.668 220.564 223.54 218.437 223.54 215.813 223.54 213.189 225.668 211.062 228.293 211.062 230.919 211.062 233.047 213.189 233.047 215.813Z" transform="matrix(1.00308 0 0 1 2037 529)"/><path d="M233.047 244.383C233.047 247.007 230.919 249.135 228.293 249.135 225.668 249.135 223.54 247.007 223.54 244.383 223.54 241.759 225.668 239.632 228.293 239.632 230.919 239.632 233.047 241.759 233.047 244.383Z" transform="matrix(1.00308 0 0 1 2037 529)"/></g></g></g></g></svg>